 <svg xmlns="http://www.w3.org/2000/svg" style="display: none;">
        <symbol xmlns="http://www.w3.org/2000/svg" xmlns:xlink="http://www.w3.org/1999/xlink" version="1.1"
            id="temperature" x="0px" y="0px" viewBox="0 0 512.00 512.00"
            style="enable-background:new 0 0 512.00 512.00;" xml:space="preserve">
            <g>
                <g>
                    <path
                        d="M281.12,353.354V42.221C281.12,18.941,262.18,0,238.899,0c-23.282,0-42.221,18.941-42.221,42.221v311.133    c-26.391,15.093-42.646,42.761-42.756,73.36c-0.078,21.959,8.481,42.96,24.097,59.132c15.624,16.179,36.315,25.453,58.26,26.115    c0.886,0.026,1.767,0.04,2.649,0.04c22.227-0.001,43.14-8.461,59.142-23.987c16.642-16.149,25.806-37.809,25.806-60.992    C323.875,396.291,307.619,368.505,281.12,353.354z M286.905,476.506c-13.496,13.095-31.316,20.003-50.142,19.427    c-17.741-0.534-34.507-8.072-47.21-21.226c-12.701-13.152-19.661-30.176-19.597-47.937c0.093-26.181,14.773-49.723,38.31-61.438    c2.724-1.355,4.444-4.136,4.444-7.177V42.221c0-14.44,11.748-26.188,26.188-26.188c14.44,0,26.188,11.748,26.188,26.188v315.935    c0,3.042,1.721,5.821,4.444,7.177c23.632,11.762,38.311,35.4,38.311,61.689C307.842,445.831,300.407,463.405,286.905,476.506z" />
                </g>
            </g>
            <g>
                <g>
                    <path
                        d="M246.915,376.889V93.528c0-4.427-3.589-8.017-8.017-8.017c-4.427,0-8.017,3.589-8.017,8.017v283.361    c-24.2,3.855-42.756,24.866-42.756,50.133c0,27.995,22.777,50.772,50.772,50.772c27.995,0,50.772-22.777,50.772-50.772    C289.671,401.755,271.115,380.744,246.915,376.889z M238.899,461.761c-19.155,0-34.739-15.584-34.739-34.739    c0-19.155,15.584-34.739,34.739-34.739s34.739,15.584,34.739,34.739C273.638,446.177,258.054,461.761,238.899,461.761z" />
                </g>
            </g>
            <g>
                <g>
                    <path
                        d="M350.063,256.534h-42.756c-4.427,0-8.017,3.589-8.017,8.017s3.589,8.017,8.017,8.017h42.756    c4.427,0,8.017-3.589,8.017-8.017S354.492,256.534,350.063,256.534z" />
                </g>
            </g>
            <g>
                <g>
                    <path
                        d="M332.961,213.778h-25.653c-4.427,0-8.017,3.589-8.017,8.017c0,4.427,3.589,8.017,8.017,8.017h25.653    c4.427,0,8.017-3.589,8.017-8.017C340.978,217.368,337.388,213.778,332.961,213.778z" />
                </g>
            </g>
            <g>
                <g>
                    <path
                        d="M350.063,171.023h-42.756c-4.427,0-8.017,3.589-8.017,8.017c0,4.427,3.589,8.017,8.017,8.017h42.756    c4.427,0,8.017-3.589,8.017-8.017C358.08,174.612,354.492,171.023,350.063,171.023z" />
                </g>
            </g>
            <g>
                <g>
                    <path
                        d="M332.961,128.267h-25.653c-4.427,0-8.017,3.589-8.017,8.017c0,4.427,3.589,8.017,8.017,8.017h25.653    c4.427,0,8.017-3.589,8.017-8.017C340.978,131.856,337.388,128.267,332.961,128.267z" />
                </g>
            </g>
            <g>
                <g>
                    <path
                        d="M350.063,85.511h-42.756c-4.427,0-8.017,3.589-8.017,8.017c0,4.427,3.589,8.017,8.017,8.017h42.756    c4.427,0,8.017-3.589,8.017-8.017C358.08,89.101,354.491,85.511,350.063,85.511z" />
                </g>
            </g>
        </symbol>
        <symbol id="humidity" xmlns="http://www.w3.org/2000/svg" xmlns:xlink="http://www.w3.org/1999/xlink"
            version="1.1" x="0px" y="0px" viewBox="0 0 512.00 512.00"
            style="enable-background:new 0 0 512.00 512.00;" xml:space="preserve">
            <g>
                <path
                    d="M209.306,50.798c-2.452-3.337-7.147-4.055-10.485-1.602c-3.338,2.453-4.055,7.147-1.603,10.485   c54.576,74.266,66.032,123.541,66.032,151.8c0,27.691-8.272,52.794-23.293,70.685c-17.519,20.866-42.972,31.446-75.651,31.446   c-73.031,0-98.944-55.018-98.944-102.131c0-52.227,28.103-103.234,51.679-136.829c25.858-36.847,52.11-61.415,52.37-61.657   c3.035-2.819,3.209-7.565,0.39-10.6c-2.819-3.034-7.565-3.209-10.599-0.39c-1.11,1.031-27.497,25.698-54.254,63.765   c-24.901,35.428-54.586,89.465-54.586,145.71c0,31.062,9.673,59.599,27.236,80.353c20.361,24.061,50.345,36.779,86.708,36.779   c36.794,0,66.926-12.726,87.139-36.801c17.286-20.588,26.806-49.117,26.806-80.33C278.25,156.216,240.758,93.597,209.306,50.798z" />
                <path
                    d="M198.43,148.146l-95.162,95.162c-2.929,2.929-2.929,7.678,0,10.606c1.465,1.464,3.385,2.197,5.304,2.197   s3.839-0.732,5.304-2.197l95.162-95.162c2.929-2.929,2.929-7.678,0-10.606C206.107,145.217,201.359,145.217,198.43,148.146z" />
                <path
                    d="M191.965,207.899c-13.292,0-24.106,10.814-24.106,24.106s10.814,24.106,24.106,24.106s24.106-10.814,24.106-24.106   S205.257,207.899,191.965,207.899z M191.965,241.111c-5.021,0-9.106-4.085-9.106-9.106s4.085-9.106,9.106-9.106   s9.106,4.085,9.106,9.106S196.986,241.111,191.965,241.111z" />
                <path
                    d="M125.178,194.162c13.292,0,24.106-10.814,24.106-24.106s-10.814-24.106-24.106-24.106s-24.106,10.814-24.106,24.106   S111.886,194.162,125.178,194.162z M125.178,160.949c5.021,0,9.106,4.085,9.106,9.106s-4.085,9.106-9.106,9.106   c-5.021,0-9.106-4.085-9.106-9.106S120.156,160.949,125.178,160.949z" />
            </g>
        </symbol>
        <symbol id="location" xmlns="http://www.w3.org/2000/svg" xmlns:xlink="http://www.w3.org/1999/xlink"
            version="1.1" viewBox="0 0 512 512" enable-background="new 0 0 512 512">
            <g>
                <path
                    d="m181.065,0c-75.532,0-136.981,61.45-136.981,136.981 0,31.155 21.475,76.714 63.827,135.411 30.619,42.436 60.744,75.965 62.011,77.372l11.144,12.367 11.144-12.367c1.267-1.406 31.392-34.936 62.011-77.372 42.352-58.697 63.827-104.255 63.827-135.411-0.001-75.531-61.451-136.981-136.983-136.981zm0,316.958c-37.733-44.112-106.981-134.472-106.981-179.977 0-58.989 47.991-106.981 106.981-106.981s106.981,47.992 106.981,106.981c0.001,45.505-69.248,135.865-106.981,179.977z" />
                <circle cx="181.065" cy="136.982" r="49.696" />
            </g>
        </symbol>
        <symbol id="airQuality" xmlns="http://www.w3.org/2000/svg" xmlns:xlink="http://www.w3.org/1999/xlink"
            version="1.1" viewBox="0 0 512 512" enable-background="new 0 0 512 512">
            <g>
                <g>
                    <path
                        d="M497.27,343.02c-15.311-23.92-40.946-40.052-68.575-43.156c-1.594-0.179-3.19-0.304-4.785-0.399l-19.874-34.422    c-2.214-3.835-7.117-5.149-10.951-2.934c-3.834,2.214-5.148,7.117-2.934,10.951l15.668,27.137    c-3.396,0.475-6.781,1.118-10.14,1.974c-0.198,0.051-0.337-0.066-0.353-0.095c-5.083-17.994-13.763-34.895-25.263-49.643    c28.032-8.554,47.875-34.473,47.875-64.842c0-37.426-30.448-67.875-67.875-67.875c-37.073,0-67.281,29.882-67.848,66.823    c-12.682-15.024-31.51-24.067-51.868-24.067c-3.928,0-7.91,0.358-11.833,1.066c-0.404,0.075-0.837-0.12-0.984-0.346    c-14.168-21.868-38.148-34.924-64.143-34.924c-30.818,0-58.454,18.392-70.405,46.857c-0.152,0.361-0.421,0.545-0.552,0.598    c-11.725-4.984-24.646-6.024-37.374-3.011c-21.969,5.202-39.138,22.858-43.74,44.982c-3.722,17.892,0.639,36.14,11.965,50.064    c8.225,10.113,19.333,17.073,31.664,20.138c-9.248,6.96-17.436,15.26-24.256,24.706C7.504,330.858,0.355,352.074,0.014,373.956    c-0.466,29.897,10.82,58.085,31.778,79.373c20.963,21.292,48.962,33.018,78.838,33.018h304.823    c20.274,0,39.737-6.023,56.287-17.418c16.91-11.643,29.18-27.843,35.481-46.847C516.038,395.492,512.41,366.674,497.27,343.02z     M350.063,135.749c28.585,0,51.841,23.256,51.841,51.841c0,25.77-18.706,47.348-43.91,51.191    c-4.364-4.352-8.998-8.441-13.898-12.207c-13.225-10.164-27.813-17.813-43.282-22.841c-1.717-5.214-2.593-10.63-2.593-16.143    C298.221,159.005,321.477,135.749,350.063,135.749z M25.72,257.64c-8.268-10.165-11.441-23.535-8.706-36.682    c3.289-15.811,16.043-28.93,31.737-32.646c9.396-2.225,18.892-1.469,27.46,2.187c3.91,1.667,8.257,1.694,12.244,0.08    c4.157-1.686,7.551-5.056,9.31-9.249c9.446-22.494,31.278-37.029,55.622-37.029c20.538,0,39.487,10.321,50.687,27.607    c3.708,5.725,10.495,8.629,17.284,7.409c2.986-0.538,6.011-0.811,8.989-0.811c15.78,0,30.356,7.115,40.044,18.898    c-4.753-0.464-9.549-0.727-14.39-0.727c-25.41,0-50.411,6.677-72.298,19.309c-21.225,12.251-39.139,29.821-51.802,50.813    c-0.059,0.097-0.239,0.394-0.732,0.298c-20.276-3.923-40.216-2.039-59.267,5.601c-0.749,0.3-1.487,0.624-2.228,0.938h-10.35v0.001    C46.236,273.637,33.988,267.806,25.72,257.64z M492.002,417.035c-10.566,31.867-41.329,53.278-76.549,53.278H110.63    c-25.547,0-49.487-10.026-67.412-28.233c-17.921-18.202-27.571-42.307-27.172-67.875c0.29-18.581,6.39-36.637,17.64-52.219    c11.098-15.37,26.377-27.267,44.183-34.409c10.781-4.323,21.588-6.472,32.695-6.472c5.76,0,11.602,0.578,17.558,1.731    c6.985,1.352,13.851-1.694,17.507-7.758c11.267-18.676,27.203-34.308,46.087-45.208C211.17,218.644,233.399,212.71,256,212.71    c57.362,0,108.31,38.541,123.897,93.724c2.369,8.389,11.227,13.441,19.745,11.274c8.982-2.292,18.155-2.934,27.264-1.911    c22.873,2.57,44.13,15.977,56.861,35.867C496.472,371.515,499.398,394.731,492.002,417.035z" />
                </g>
            </g>
            <g>
                <g>
                    <path
                        d="M238.898,265.086c-32.711,0-59.324,26.612-59.324,59.324v42.756c0,32.711,26.612,59.324,59.324,59.324    s59.324-26.612,59.324-59.324v-42.756C298.221,291.698,271.609,265.086,238.898,265.086z M282.188,367.165    c0,23.871-19.42,43.29-43.29,43.29s-43.29-19.421-43.29-43.29v-42.756c0-23.871,19.42-43.29,43.29-43.29s43.29,19.42,43.29,43.29    V367.165z" />
                </g>
            </g>
            <g>
                <g>
                    <path
                        d="M350.063,419.006h-21.556l19.526-14.644c6.291-4.718,10.048-12.231,10.048-20.095c0-13.851-11.268-25.119-25.119-25.119    c-13.851,0-25.119,11.268-25.119,25.119c0,4.427,3.589,8.017,8.017,8.017s8.017-3.589,8.017-8.017c0-5.01,4.076-9.086,9.086-9.086    c5.01,0,9.086,4.076,9.086,9.086c0,2.844-1.359,5.561-3.634,7.268l-23.942,17.957c-4.15,3.113-6.628,8.067-6.628,13.254v4.276    c0,4.427,3.589,8.017,8.017,8.017h34.205c4.427,0,8.017-3.589,8.017-8.017S354.49,419.006,350.063,419.006z" />
                </g>
            </g>
            <g>
                <g>
                    <path
                        d="M350.063,25.653c-4.427,0-8.017,3.589-8.017,8.017v59.858c0,4.427,3.589,8.017,8.017,8.017s8.017-3.589,8.017-8.017V33.67    C358.079,29.243,354.49,25.653,350.063,25.653z" />
                </g>
            </g>
            <g>
                <g>
                    <path
                        d="M503.983,179.574h-59.858c-4.427,0-8.017,3.589-8.017,8.017s3.589,8.017,8.017,8.017h59.858    c4.427,0,8.017-3.589,8.017-8.017S508.411,179.574,503.983,179.574z" />
                </g>
            </g>
            <g>
                <g>
                    <path
                        d="M422.48,62.16c-3.834-2.215-8.737-0.901-10.951,2.934l-21.378,37.028c-2.215,3.833-0.901,8.737,2.934,10.951    c1.262,0.729,2.641,1.075,4.001,1.075c2.771,0,5.465-1.438,6.95-4.009l21.378-37.028C427.628,69.277,426.314,64.374,422.48,62.16z    " />
                </g>
            </g>
            <g>
                <g>
                    <path
                        d="M309.974,102.121l-21.378-37.028c-2.214-3.834-7.117-5.149-10.951-2.934c-3.834,2.214-5.148,7.117-2.934,10.951    l21.378,37.028c1.485,2.572,4.179,4.009,6.95,4.009c1.36,0,2.739-0.346,4.001-1.075    C310.874,110.858,312.187,105.955,309.974,102.121z" />
                </g>
            </g>
            <g>
                <g>
                    <path
                        d="M472.559,249.058l-37.028-21.378c-3.834-2.215-8.737-0.901-10.951,2.934c-2.214,3.834-0.9,8.737,2.934,10.951    l37.028,21.378c1.262,0.729,2.641,1.075,4.001,1.075c2.771,0,5.465-1.438,6.95-4.009    C477.707,256.174,476.393,251.271,472.559,249.058z" />
                </g>
            </g>
            <g>
                <g>
                    <path
                        d="M272.611,133.617l-37.028-21.378c-3.835-2.215-8.737-0.9-10.951,2.934c-2.215,3.834-0.901,8.737,2.934,10.951    l37.028,21.378c1.262,0.729,2.641,1.075,4.001,1.075c2.771,0,5.465-1.438,6.95-4.009    C277.758,140.734,276.445,135.831,272.611,133.617z" />
                </g>
            </g>
            <g>
                <g>
                    <path
                        d="M475.493,115.173c-2.214-3.834-7.117-5.149-10.951-2.934l-37.028,21.378c-3.834,2.214-5.148,7.116-2.934,10.951    c1.485,2.572,4.179,4.009,6.95,4.009c1.36,0,2.739-0.346,4.001-1.075l37.028-21.378    C476.393,123.91,477.707,119.007,475.493,115.173z" />
                </g>
            </g>
        </symbol>
    </svg>